<svg width="28" height="27" viewBox="0 0 28 27" fill="none" xmlns="http://www.w3.org/2000/svg">
<path d="M27.2937 15.5485C27.1962 14.8846 27.0829 14.2237 26.9791 13.5629C26.8343 12.6189 26.6959 11.7 26.5385 10.7717C26.3812 9.84336 26.2238 8.91819 26.0507 7.98988C25.9312 7.29128 25.7896 6.599 25.7172 5.89726C25.6388 5.03059 25.3986 4.1863 25.0092 3.40811C24.3181 2.01367 23.1221 0.934652 21.6641 0.390324C21.0791 0.195616 20.4725 0.0730223 19.8578 0.0252826C19.1372 -0.0423388 18.4103 0.025982 17.7148 0.226684C16.9856 0.439531 16.2912 0.757557 15.6537 1.17073C13.6995 2.30673 11.7548 3.45847 9.80373 4.59762C7.52228 5.92872 5.2377 7.24723 2.9594 8.58148C1.85646 9.23876 0.992135 10.231 0.492295 11.4136C0.0916786 12.3661 -0.0682706 13.4025 0.0265675 14.4314C0.0940601 15.615 0.524805 16.749 1.26012 17.6789C2.1727 18.8496 3.14821 19.9793 4.09226 21.109C4.90099 22.053 5.61846 23.0978 6.58453 23.9065C7.0555 24.3293 7.56788 24.7035 8.11389 25.0236C9.47673 25.7921 10.9981 26.2368 12.5603 26.3232C13.6255 26.3822 14.6925 26.2435 15.7072 25.9142C16.7784 25.5251 17.8287 25.0808 18.854 24.583C19.6438 24.2275 20.4274 23.8436 21.1952 23.4533C22.2085 22.9404 23.2343 22.4464 24.2193 21.8799C26.2993 20.6904 27.2874 18.8433 27.3661 16.5303C27.3504 16.159 27.3504 15.8506 27.2937 15.5485ZM25.9689 16.9929C25.8747 17.974 25.4689 18.8992 24.8109 19.6331C24.2145 20.2673 23.4977 20.7765 22.7025 21.131C21.4438 21.7604 20.1851 22.418 18.9264 23.0191C17.718 23.5824 16.5474 24.2589 15.2477 24.5925C14.6136 24.735 13.9715 24.8401 13.325 24.9072C10.3481 24.8285 8.17053 23.7901 6.46496 21.7604C5.26602 20.3286 4.04505 18.9282 2.8587 17.4775C2.33948 16.8482 1.81711 16.2188 1.57795 15.4164C1.28325 14.4987 1.25813 13.5158 1.50557 12.5842C1.90207 11.1587 2.83038 10.1706 4.09226 9.43743C5.64364 8.54688 7.17614 7.62484 8.72123 6.72485C10.1404 5.89724 11.5722 5.08852 12.9915 4.26091C14.4107 3.43329 15.7103 2.60882 17.1106 1.85673C17.9896 1.37482 18.9992 1.18526 19.9931 1.31549C21.1536 1.44276 22.23 1.98204 23.0267 2.83539C23.756 3.65196 24.2183 4.67203 24.3515 5.75879C24.5434 6.90109 24.7228 8.04652 24.9085 9.18881C25.0343 9.9409 25.1665 10.6899 25.2892 11.4388C25.4906 12.6723 25.7046 13.9028 25.8777 15.1395C25.9765 15.752 26.0071 16.3736 25.9689 16.9929Z" fill="whitesmoke"/>
</svg>
